<svg xmlns="http://www.w3.org/2000/svg" id="Layer_1" viewBox="0 0 256 256" width="256" height="256"><defs><style>.cls-1,.cls-2{fill:#bdffd9;stroke-width:4px}.cls-1{stroke:#7ba68d;stroke-miterlimit:10}.cls-2{stroke:#512500;stroke-linecap:round;stroke-linejoin:round}</style></defs><circle cx="128" cy="128" r="91.03" class="cls-1"/><path d="M68.06 84.45l11.17 7.49m25.5 85.23l-7.49 11.24m73.85-98.34l-7.5 11.24m31.85 30.9l7.49 8.43m-82.59 45.53l7.49 8.43M138 61.61l7.5 8.43m15.31 72.24l-13.77 11.71m48.85-62.06l-12.74 17.47m-97.93 52.07l-12.74 17.47m47.63-78.1l7.95 6.55m39.28 66.51l7.95 6.55M56.82 128l16.82 8.43m30.77-4.22l-6.86 10.07m3.43-87.81l14.84 9.37" class="cls-2"/></svg>